<svg width="40" height="40" viewBox="0 0 40 40" fill="none" xmlns="http://www.w3.org/2000/svg">
<path d="M34.7167 13.35L23.8 4.61662C21.6667 2.91662 18.3333 2.89995 16.2167 4.59995L5.30001 13.35C3.73334 14.6 2.78334 17.0999 3.11668 19.0666L5.21668 31.6333C5.70001 34.45 8.31668 36.6666 11.1667 36.6666H28.8333C31.65 36.6666 34.3167 34.4 34.8 31.6166L36.9 19.05C37.2 17.1 36.25 14.6 34.7167 13.35ZM21.25 30C21.25 30.6833 20.6833 31.25 20 31.25C19.3167 31.25 18.75 30.6833 18.75 30V24.9999C18.75 24.3166 19.3167 23.7499 20 23.7499C20.6833 23.7499 21.25 24.3166 21.25 24.9999V30Z" fill="#015259"/>
</svg>
